<svg width="208px" height="81px" viewBox="0 0 208 81" version="1.1" xmlns="http://www.w3.org/2000/svg" xmlns:xlink="http://www.w3.org/1999/xlink">
    <g id="Design" stroke="none" stroke-width="1" fill="none" fill-rule="evenodd">
        <g id="Wizard" transform="translate(-134.000000, -78.000000)" fill="#000000">
            <g id="Group" transform="translate(134.000000, 78.000000)">
                <g id="Group">
                    <path d="M20.1164269,18.4330439 C31.2264227,18.4330439 40.2328539,27.4560559 40.2328539,38.5865053 C40.2328539,49.7169546 31.2264227,58.7399666 20.1164269,58.7399666 C9.00643111,58.7399666 0,49.7169546 0,38.5865053 C0,27.4560559 9.00643111,18.4330439 20.1164269,18.4330439 Z M20.1164269,23.3485223 C11.7161862,23.3485223 4.90644559,30.1707997 4.90644559,38.5865053 C4.90644559,47.0022109 11.7161862,53.8244882 20.1164269,53.8244882 C28.5166677,53.8244882 35.3264083,47.0022109 35.3264083,38.5865053 C35.3264083,30.1707997 28.5166677,23.3485223 20.1164269,23.3485223 Z M19.9937658,32.6879312 C22.2293137,32.6879312 24.0415834,34.5035373 24.0415834,36.7432009 C24.0415834,38.415483 23.0312229,39.8513484 21.5887043,40.4715302 L21.5883606,42.7678234 C21.5883606,43.7162376 20.8195189,44.4850793 19.8711046,44.4850793 C18.9226904,44.4850793 18.1538487,43.7162376 18.1538487,42.7678234 L18.1532334,40.3559764 C16.8429302,39.6846392 15.9459482,38.3188635 15.9459482,36.7432009 C15.9459482,34.5035373 17.7582178,32.6879312 19.9937658,32.6879312 Z" id="Oval"></path>
                    <path d="M20.1164269,0 C27.2972779,0 33.1185077,5.83194677 33.1185077,13.0260177 L33.1185077,13.0260177 L33.1185077,24.5773919 L33.1185077,24.5773919 L28.2120622,24.5773919 L28.2120622,13.0260177 C28.2120622,8.54669052 24.5875228,4.91547838 20.1164269,4.91547838 C15.645331,4.91547838 12.0207917,8.54669052 12.0207917,13.0260177 L12.0207917,13.0260177 L12.0207917,24.5773919 L12.0207917,24.5773919 L7.11434611,24.5773919 L7.11434611,13.0260177 C7.11434611,5.83194677 12.935576,0 20.1164269,0 Z" id="Rectangle"></path>
                </g>
                <path d="M63.0971847,26.5536835 L65.508742,17.9792577 L68.0393885,26.5536835 L71.7906998,26.5536835 L76.6138143,12.6500139 L71.8502444,12.6500139 L69.5577764,20.5992212 L67.2653084,12.6500139 L63.7224032,12.6500139 L61.4299352,20.5992212 L59.1374672,12.6500139 L54.3738973,12.6500139 L59.3458734,26.5536835 L63.0971847,26.5536835 Z M82.1804319,33.4013153 L82.1804319,25.0055233 C83.1926905,26.315505 85.0385739,26.9109513 86.4676448,26.9109513 C89.9510053,26.9109513 93.2259596,24.0825817 93.2259596,19.5869626 C93.2259596,15.1211158 89.9510053,12.2927462 86.4676448,12.2927462 C85.0385739,12.2927462 83.1926905,12.8584201 82.1804319,14.1386295 L82.1804319,12.6500139 L77.7741298,12.6500139 L77.7741298,33.4013153 L82.1804319,33.4013153 Z M85.5447032,22.8321446 C83.8774537,22.8321446 82.3292935,21.4030736 82.3292935,19.5869626 C82.3292935,17.8006239 83.8476814,16.3715529 85.5447032,16.3715529 C87.2714973,16.3715529 88.7601129,17.8303962 88.7601129,19.5869626 C88.7601129,21.3733013 87.2714973,22.8321446 85.5447032,22.8321446 Z M107.961645,33.758583 C112.993165,33.758583 116.089486,30.7813518 116.089486,24.8864341 L116.089486,12.6500139 L111.712956,12.6500139 L111.712956,14.1684018 C110.670925,12.8584201 108.825042,12.2927462 107.395971,12.2927462 C103.942383,12.2927462 100.667428,15.0913435 100.667428,19.5869626 C100.667428,24.0825817 103.942383,26.9109513 107.395971,26.9109513 C108.825042,26.9109513 110.670925,26.315505 111.712956,25.0055233 L111.712956,25.4223357 C111.712956,28.6079731 110.254113,29.8881825 107.961645,29.8881825 C106.502801,29.8881825 105.163047,28.9652408 104.656918,27.833893 L101.024696,29.2927462 C102.126272,31.9126997 104.80578,33.758583 107.961645,33.758583 Z M108.348685,22.8321446 C106.621891,22.8321446 105.133275,21.343529 105.133275,19.5869626 C105.133275,17.8303962 106.621891,16.3715529 108.348685,16.3715529 C110.015934,16.3715529 111.534322,17.8006239 111.534322,19.5869626 C111.534322,21.3733013 110.045707,22.8321446 108.348685,22.8321446 Z M124.931058,26.9109513 C126.360129,26.9109513 128.235784,26.3452774 129.248043,25.0055233 L129.248043,26.5536835 L133.624573,26.5536835 L133.624573,5.0878467 L129.248043,5.0878467 L129.248043,14.1684018 C128.235784,12.8584201 126.360129,12.2927462 124.931058,12.2927462 C121.47747,12.2927462 118.202515,15.0913435 118.202515,19.5869626 C118.202515,24.0825817 121.47747,26.9109513 124.931058,26.9109513 Z M125.883772,22.8321446 C124.156978,22.8321446 122.668362,21.343529 122.668362,19.5869626 C122.668362,17.8303962 124.156978,16.3715529 125.883772,16.3715529 C127.551021,16.3715529 129.069409,17.8006239 129.069409,19.5869626 C129.069409,21.3733013 127.580794,22.8321446 125.883772,22.8321446 Z M140.917985,33.4013153 L140.917985,25.0055233 C141.930243,26.315505 143.776127,26.9109513 145.205197,26.9109513 C148.688558,26.9109513 151.963512,24.0825817 151.963512,19.5869626 C151.963512,15.1211158 148.688558,12.2927462 145.205197,12.2927462 C143.776127,12.2927462 141.930243,12.8584201 140.917985,14.1386295 L140.917985,12.6500139 L136.511682,12.6500139 L136.511682,33.4013153 L140.917985,33.4013153 Z M144.282256,22.8321446 C142.615006,22.8321446 141.066846,21.4030736 141.066846,19.5869626 C141.066846,17.8006239 142.585234,16.3715529 144.282256,16.3715529 C146.00905,16.3715529 147.497666,17.8303962 147.497666,19.5869626 C147.497666,21.3733013 146.00905,22.8321446 144.282256,22.8321446 Z M158.453072,26.5536835 L158.453072,21.9389752 C158.453072,17.8303962 159.882143,16.3715529 161.608937,16.3715529 C162.055521,16.3715529 162.740285,16.4013252 163.603682,16.9074545 L164.645712,12.7095585 C163.931177,12.3522908 163.216642,12.2927462 162.561651,12.2927462 C160.864629,12.2927462 159.197379,13.3050048 158.393527,15.5974728 L158.393527,12.6500139 L154.046769,12.6500139 L154.046769,26.5536835 L158.453072,26.5536835 Z M63.0078678,55.8786061 C65.6873758,55.8786061 67.7416653,54.5686243 69.0814194,52.6036518 L65.6576035,50.4600453 C65.1217019,51.29367 63.990354,51.7997993 63.0376401,51.7997993 C61.0131229,51.7997993 59.8222304,50.2814114 59.8222304,48.524845 C59.8222304,46.7980509 61.0131229,45.3392077 63.0376401,45.3392077 C63.990354,45.3392077 65.1217019,45.845337 65.6576035,46.6789617 L69.0814194,44.5353552 C67.7416653,42.5703827 65.6873758,41.2604009 63.0078678,41.2604009 C58.9588333,41.2604009 55.3266113,44.1185429 55.3266113,48.524845 C55.3266113,52.9311472 58.9588333,55.8786061 63.0078678,55.8786061 Z M77.4466343,55.8786061 C81.4063518,55.8786061 85.0088016,52.9609195 85.0088016,48.5843897 C85.0088016,44.1780875 81.4063518,41.2604009 77.4466343,41.2604009 C73.4869169,41.2604009 69.9142395,44.1780875 69.9142395,48.5843897 C69.9142395,52.9609195 73.4869169,55.8786061 77.4466343,55.8786061 Z M77.4466343,51.7997993 C75.7496126,51.7997993 74.3800862,50.4898176 74.3800862,48.5843897 C74.3800862,46.6789617 75.7496126,45.3392077 77.4466343,45.3392077 C79.1436561,45.3392077 80.5131825,46.6789617 80.5131825,48.5843897 C80.5131825,50.4898176 79.1436561,51.7997993 77.4466343,51.7997993 Z M91.4685886,55.5213383 L91.4685886,48.2568942 C91.4685886,45.9346539 92.6892534,45.3392077 93.8801458,45.3392077 C94.9817214,45.3392077 96.0535246,46.1132878 96.0535246,48.2568942 L96.0535246,55.5213383 L100.459827,55.5213383 L100.459827,48.7332512 C100.459827,46.2919216 101.472085,45.3392077 102.841612,45.3392077 C103.97296,45.3392077 105.044763,46.0239708 105.044763,48.1675773 L105.044763,55.5213383 L109.451065,55.5213383 L109.451065,48.048488 C109.451065,43.7910474 107.664726,41.2604009 104.181366,41.2604009 C102.722522,41.2604009 100.578916,42.0642534 99.626202,43.9101367 C98.7925773,42.2428872 97.2741894,41.2604009 95.2198999,41.2604009 C93.8206012,41.2604009 91.7365394,42.2131149 91.4685886,44.3269491 L91.4685886,41.6176687 L87.0622864,41.6176687 L87.0622864,55.5213383 L91.4685886,55.5213383 Z M116.565843,62.36897 L116.565843,53.9731781 C117.578101,55.2831598 119.423985,55.8786061 120.853056,55.8786061 C124.336416,55.8786061 127.61137,53.0502364 127.61137,48.5546173 C127.61137,44.0887706 124.336416,41.2604009 120.853056,41.2604009 C119.423985,41.2604009 117.578101,41.8260749 116.565843,43.1062843 L116.565843,41.6176687 L112.159541,41.6176687 L112.159541,62.36897 L116.565843,62.36897 Z M119.930114,51.7997993 C118.262865,51.7997993 116.714704,50.3707284 116.714704,48.5546173 C116.714704,46.7682786 118.233092,45.3392077 119.930114,45.3392077 C121.656908,45.3392077 123.145524,46.7980509 123.145524,48.5546173 C123.145524,50.3409561 121.656908,51.7997993 119.930114,51.7997993 Z M134.10093,55.5213383 L134.10093,34.0555015 L129.694628,34.0555015 L129.694628,55.5213383 L134.10093,55.5213383 Z M139.19119,39.5336069 C140.679806,39.5336069 141.870699,38.3724867 141.870699,36.973188 C141.870699,35.5143448 140.679806,34.4127692 139.19119,34.4127692 C137.702575,34.4127692 136.452138,35.5143448 136.452138,36.973188 C136.452138,38.3724867 137.702575,39.5336069 139.19119,39.5336069 Z M141.394342,55.5213383 L141.394342,41.6176687 L136.988039,41.6176687 L136.988039,55.5213383 L141.394342,55.5213383 Z M150.146597,55.8786061 C151.903163,55.8786061 153.600185,55.0747536 154.552899,53.7647719 L154.552899,55.5213383 L158.959201,55.5213383 L158.959201,41.6176687 L154.552899,41.6176687 L154.552899,43.2849181 C153.600185,42.0047087 151.903163,41.2604009 150.206141,41.2604009 C146.246424,41.2604009 143.507371,44.2078598 143.507371,48.5843897 C143.507371,52.9311472 146.246424,55.8786061 150.146597,55.8786061 Z M151.2184,51.7997993 C149.312972,51.7997993 148.00299,50.2814114 148.00299,48.5843897 C148.00299,46.7980509 149.312972,45.3392077 151.188628,45.3392077 C152.974966,45.3392077 154.404037,46.7682786 154.404037,48.5843897 C154.404037,50.2814114 153.004739,51.7997993 151.2184,51.7997993 Z M166.252613,55.5213383 L166.252613,48.2866665 C166.252613,45.9644262 167.741228,45.3392077 168.932121,45.3392077 C170.033696,45.3392077 171.343678,46.1728324 171.343678,48.3164388 L171.343678,55.5213383 L175.74998,55.5213383 L175.74998,48.048488 C175.74998,43.7910474 173.933869,41.2604009 170.242102,41.2604009 C168.932121,41.2604009 166.72897,42.1535703 166.252613,44.1185429 L166.252613,41.6176687 L161.84631,41.6176687 L161.84631,55.5213383 L166.252613,55.5213383 Z M185.306088,55.8786061 C187.985596,55.8786061 190.039885,54.5686243 191.379639,52.6036518 L187.955823,50.4600453 C187.419922,51.29367 186.288574,51.7997993 185.33586,51.7997993 C183.311343,51.7997993 182.12045,50.2814114 182.12045,48.524845 C182.12045,46.7980509 183.311343,45.3392077 185.33586,45.3392077 C186.288574,45.3392077 187.419922,45.845337 187.955823,46.6789617 L191.379639,44.5353552 C190.039885,42.5703827 187.985596,41.2604009 185.306088,41.2604009 C181.257053,41.2604009 177.624831,44.1185429 177.624831,48.524845 C177.624831,52.9311472 181.257053,55.8786061 185.306088,55.8786061 Z M199.744854,55.8786061 C202.067094,55.8786061 204.448879,54.9556644 205.818406,53.4670488 L203.55571,50.6089069 C202.692313,51.4425316 201.352559,52.0379778 200.042577,52.0379778 C198.375328,52.0379778 197.214208,51.2043531 196.797395,49.8645991 L206.979526,49.8645991 C207.009298,49.1798359 207.039071,48.6737066 207.039071,48.2866665 C207.039071,44.0589983 203.704572,41.2604009 199.715082,41.2604009 C195.725592,41.2604009 192.242232,44.0887706 192.242232,48.614162 C192.242232,52.8418302 195.338552,55.8786061 199.744854,55.8786061 Z M202.662541,47.2744079 L196.767623,47.2744079 C197.214208,45.6071585 198.494417,44.9819399 199.804399,44.9819399 C201.382331,44.9819399 202.602996,45.9048816 202.662541,47.2744079 Z" id="wpgdprcompliance" fill-rule="nonzero"></path>
                <path d="M58.7818088,78.2062306 C60.3267504,78.2062306 61.7300723,76.9702774 61.7300723,75.0391004 C61.7300723,73.1079234 60.3267504,71.8848446 58.7818088,71.8848446 C58.0994596,71.8848446 57.2754907,72.1552094 56.8506318,72.7603115 L56.8506318,68.7692124 L55.1640706,68.7692124 L55.1640706,78.0517365 L56.8506318,78.0517365 L56.8506318,77.3050147 C57.2754907,77.9229913 58.0994596,78.2062306 58.7818088,78.2062306 Z M58.459946,76.63554 C57.6359771,76.63554 56.9021299,75.9531908 56.9021299,75.0391004 C56.9021299,74.1121354 57.6746007,73.4555352 58.459946,73.4555352 C59.3096638,73.4555352 60.0048875,74.150759 60.0048875,75.0391004 C60.0048875,75.9145673 59.3096638,76.63554 58.459946,76.63554 Z M65.0516967,81 L68.7595565,72.0393388 L66.9442502,72.0393388 L65.5666773,75.5154574 L64.1504808,72.0393388 L62.2965509,72.0393388 L64.6783358,77.4852579 L63.2492649,81 L65.0516967,81 Z M76.9091234,78.2062306 C78.4154415,78.2062306 79.7286418,77.4852579 80.5268616,76.3651752 L79.1621632,75.3738377 C78.6600572,76.0819359 77.9133355,76.5196694 76.9606215,76.5196694 C75.3513073,76.5196694 74.1926011,75.1935945 74.1926011,73.6100294 C74.1926011,72.0264643 75.3641818,70.7132639 76.973496,70.7132639 C77.9133355,70.7132639 78.6600572,71.1509974 79.1621632,71.8590956 L80.5268616,70.8677581 C79.7286418,69.7476754 78.4154415,69.0267027 76.9091234,69.0267027 C74.3985933,69.0267027 72.4030438,71.1123738 72.4030438,73.6100294 C72.4030438,76.133434 74.3985933,78.2062306 76.9091234,78.2062306 Z M84.5694588,78.2062306 C86.2817691,78.2062306 87.8009616,76.9445283 87.8009616,75.0519749 C87.8009616,73.1465469 86.2817691,71.8848446 84.5694588,71.8848446 C82.8571485,71.8848446 81.337956,73.1465469 81.337956,75.0519749 C81.337956,76.9445283 82.8571485,78.2062306 84.5694588,78.2062306 Z M84.5694588,76.63554 C83.7326154,76.63554 83.0502662,75.9789398 83.0502662,75.0519749 C83.0502662,74.1121354 83.7326154,73.4555352 84.5694588,73.4555352 C85.4063022,73.4555352 86.0886514,74.1121354 86.0886514,75.0519749 C86.0886514,75.9789398 85.4063022,76.63554 84.5694588,76.63554 Z M91.9851784,78.2062306 C93.6974887,78.2062306 95.2166812,76.9445283 95.2166812,75.0519749 C95.2166812,73.1465469 93.6974887,71.8848446 91.9851784,71.8848446 C90.2728682,71.8848446 88.7536756,73.1465469 88.7536756,75.0519749 C88.7536756,76.9445283 90.2728682,78.2062306 91.9851784,78.2062306 Z M91.9851784,76.63554 C91.1483351,76.63554 90.4659859,75.9789398 90.4659859,75.0519749 C90.4659859,74.1121354 91.1483351,73.4555352 91.9851784,73.4555352 C92.8220218,73.4555352 93.504371,74.1121354 93.504371,75.0519749 C93.504371,75.9789398 92.8220218,76.63554 91.9851784,76.63554 Z M98.2293173,78.0517365 L98.2293173,75.4510848 L100.340738,78.0517365 L102.439283,78.0517365 L99.5682667,74.6914885 L101.911428,72.0393388 L99.7485099,72.0393388 L98.2293173,73.8803942 L98.2293173,68.7692124 L96.5427561,68.7692124 L96.5427561,78.0517365 L98.2293173,78.0517365 Z M103.997099,70.9836287 C104.589327,70.9836287 105.065684,70.5330207 105.065684,69.9665422 C105.065684,69.4000636 104.589327,68.9623301 103.997099,68.9623301 C103.417746,68.9623301 102.928515,69.4000636 102.928515,69.9665422 C102.928515,70.5330207 103.417746,70.9836287 103.997099,70.9836287 Z M104.846817,78.0517365 L104.846817,72.0393388 L103.160256,72.0393388 L103.160256,78.0517365 L104.846817,78.0517365 Z M109.39152,78.2062306 C110.44723,78.2062306 111.490066,77.7556227 112.056545,76.9960264 L111.078082,76.0046889 C110.704721,76.4295478 110.112493,76.7127871 109.494516,76.7127871 C108.696297,76.7127871 108.129818,76.3008027 107.949575,75.5927044 L112.468529,75.5927044 C112.494278,75.3223397 112.507153,75.1163475 112.507153,74.9489788 C112.507153,73.1079234 111.103831,71.8848446 109.378646,71.8848446 C107.666336,71.8848446 106.185767,73.1079234 106.185767,75.0519749 C106.185767,76.9059048 107.53759,78.2062306 109.39152,78.2062306 Z M110.807717,74.4983708 L107.949575,74.4983708 C108.129818,73.6872765 108.722046,73.3396646 109.417269,73.3396646 C110.176866,73.3396646 110.756219,73.7902726 110.807717,74.4983708 Z M118.892911,78.0517365 L118.892911,69.1811969 L117.103354,69.1811969 L117.103354,78.0517365 L118.892911,78.0517365 Z M122.510649,78.0517365 L122.510649,74.8974807 C122.510649,73.8031471 123.257371,73.4812843 123.862473,73.4812843 C124.441826,73.4812843 125.008305,73.9061432 125.008305,74.8459827 L125.008305,78.0517365 L126.694866,78.0517365 L126.694866,74.7558611 C126.707741,72.9534292 125.883772,71.8848446 124.313081,71.8848446 C123.720854,71.8848446 122.76814,72.245331 122.510649,73.0564253 L122.510649,72.0393388 L120.824088,72.0393388 L120.824088,78.0517365 L122.510649,78.0517365 Z M130.595844,78.0517365 L130.595844,73.3525391 L131.909044,73.3525391 L131.909044,72.0393388 L130.595844,72.0393388 L130.595844,71.5887308 C130.608718,70.8677581 130.917706,70.339903 131.883295,70.339903 L132.26953,70.339903 L132.26953,68.7692124 L131.548558,68.7692124 C129.836247,68.7692124 128.909282,69.7991735 128.909282,71.6016053 L128.909282,72.0393388 L127.776325,72.0393388 L127.776325,73.3525391 L128.909282,73.3525391 L128.909282,78.0517365 L130.595844,78.0517365 Z M135.86152,78.2062306 C137.57383,78.2062306 139.093022,76.9445283 139.093022,75.0519749 C139.093022,73.1465469 137.57383,71.8848446 135.86152,71.8848446 C134.149209,71.8848446 132.630017,73.1465469 132.630017,75.0519749 C132.630017,76.9445283 134.149209,78.2062306 135.86152,78.2062306 Z M135.86152,76.63554 C135.024676,76.63554 134.342327,75.9789398 134.342327,75.0519749 C134.342327,74.1121354 135.024676,73.4555352 135.86152,73.4555352 C136.698363,73.4555352 137.380712,74.1121354 137.380712,75.0519749 C137.380712,75.9789398 136.698363,76.63554 135.86152,76.63554 Z M142.105658,78.0517365 L142.105658,75.9918144 C142.105658,74.2795041 142.697886,73.4684098 143.560478,73.4684098 C143.766471,73.4684098 144.062584,73.4941588 144.423071,73.6872765 L144.809306,72.0779623 C144.538941,71.9363427 144.178455,71.8848446 143.856592,71.8848446 C143.10987,71.8848446 142.427521,72.3225781 142.092784,73.3267901 L142.092784,72.0393388 L140.419097,72.0393388 L140.419097,78.0517365 L142.105658,78.0517365 Z M147.397083,78.0517365 L147.397083,74.8846062 C147.397083,73.8031471 148.01506,73.4684098 148.620162,73.4684098 C149.186641,73.4684098 149.675872,73.8803942 149.675872,74.8331082 L149.675872,78.0517365 L151.362433,78.0517365 L151.362433,75.0905984 C151.362433,73.9705158 151.825916,73.4555352 152.546889,73.4684098 C153.139116,73.4684098 153.628348,73.8675197 153.628348,74.8073591 L153.628348,78.0517365 L155.327784,78.0517365 L155.327784,74.7558611 C155.327784,72.9534292 154.542438,71.8848446 153.03612,71.8848446 C152.405269,71.8848446 151.46543,72.1938329 151.027696,73.0692998 C150.66721,72.3097036 149.984861,71.8848446 149.096519,71.8848446 C148.41417,71.8848446 147.525828,72.3225781 147.397083,73.2109195 L147.397083,72.0393388 L145.710522,72.0393388 L145.710522,78.0517365 L147.397083,78.0517365 Z M159.473377,78.2062306 C160.284471,78.2062306 161.056942,77.8071207 161.456052,77.1891441 L161.456052,78.0517365 L163.142613,78.0517365 L163.142613,72.0393388 L161.456052,72.0393388 L161.456052,72.8375586 C161.056942,72.219582 160.284471,71.8848446 159.512,71.8848446 C157.786816,71.8848446 156.576611,73.1851705 156.576611,75.0519749 C156.576611,76.9187793 157.812565,78.2062306 159.473377,78.2062306 Z M159.846738,76.63554 C158.958396,76.63554 158.301796,75.8888182 158.301796,75.0519749 C158.301796,74.176508 158.958396,73.4555352 159.833863,73.4555352 C160.670707,73.4555352 161.404554,74.1378844 161.404554,75.0519749 C161.404554,75.9145673 160.696456,76.63554 159.846738,76.63554 Z M167.107963,78.0517365 L167.107963,73.3525391 L168.38254,73.3525391 L168.38254,72.0393388 L167.107963,72.0393388 L167.107963,69.8506715 L165.421402,69.8506715 L165.421402,72.0393388 L164.327068,72.0393388 L164.327068,73.3525391 L165.421402,73.3525391 L165.421402,78.0517365 L167.107963,78.0517365 Z M170.313717,70.9836287 C170.905945,70.9836287 171.382302,70.5330207 171.382302,69.9665422 C171.382302,69.4000636 170.905945,68.9623301 170.313717,68.9623301 C169.734364,68.9623301 169.245132,69.4000636 169.245132,69.9665422 C169.245132,70.5330207 169.734364,70.9836287 170.313717,70.9836287 Z M171.163435,78.0517365 L171.163435,72.0393388 L169.476874,72.0393388 L169.476874,78.0517365 L171.163435,78.0517365 Z M175.721012,78.2062306 C177.433323,78.2062306 178.952515,76.9445283 178.952515,75.0519749 C178.952515,73.1465469 177.433323,71.8848446 175.721012,71.8848446 C174.008702,71.8848446 172.48951,73.1465469 172.48951,75.0519749 C172.48951,76.9445283 174.008702,78.2062306 175.721012,78.2062306 Z M175.721012,76.63554 C174.884169,76.63554 174.20182,75.9789398 174.20182,75.0519749 C174.20182,74.1121354 174.884169,73.4555352 175.721012,73.4555352 C176.557856,73.4555352 177.240205,74.1121354 177.240205,75.0519749 C177.240205,75.9789398 176.557856,76.63554 175.721012,76.63554 Z M181.965151,78.0517365 L181.965151,74.8974807 C181.965151,73.8031471 182.711873,73.4812843 183.316975,73.4812843 C183.896328,73.4812843 184.462807,73.9061432 184.462807,74.8459827 L184.462807,78.0517365 L186.149368,78.0517365 L186.149368,74.7558611 C186.162243,72.9534292 185.338274,71.8848446 183.767583,71.8848446 C183.175356,71.8848446 182.222642,72.245331 181.965151,73.0564253 L181.965151,72.0393388 L180.27859,72.0393388 L180.27859,78.0517365 L181.965151,78.0517365 Z" id="byCookieInformation" fill-rule="nonzero"></path>
            </g>
        </g>
    </g>
</svg>
